<?xml version="1.0" encoding="utf-8" ?>
<svg xmlns="http://www.w3.org/2000/svg" xmlns:xlink="http://www.w3.org/1999/xlink" width="512" height="512">
	<path fill="#766B64" transform="scale(0.666667 0.666667)" d="M382.023 40.6843C402.946 40.9369 423.989 42.3979 444.545 46.4746C464.914 50.5145 484.73 57.1488 503.901 65.0665C543.728 81.5155 580.397 104.14 611.435 134.225C642.071 163.921 668.407 200.378 686.118 239.265C702.293 274.779 712.24 314.518 715.326 353.426L716.358 381.188C716.435 386.944 716.022 392.692 715.718 398.437L715.281 409.116C713.881 425.246 711.051 441.375 707.359 457.125C693.416 516.605 666.226 573.64 623.397 617.775C579.009 663.516 519.152 698.006 456.75 711.492C440.987 714.899 424.577 717.231 408.477 718.219L385.814 718.767C367.771 718.599 349.845 717.753 331.978 715.053C264.096 704.797 200.939 672.085 151.208 625.095C139.734 614.252 128.981 602.28 119.641 589.543C107.98 573.64 98.0408 556.144 89.1391 538.57C76.9779 514.561 66.8539 489.315 60.5067 463.107C54.8163 439.612 51.8787 415.275 51.2412 391.113C50.9475 379.981 50.7989 368.631 51.6341 357.527C57.5512 278.848 92.4928 201.366 146.929 144.345C197.168 91.7209 266.81 54.9076 338.809 44.0625C353.074 41.9138 367.615 41.0048 382.023 40.6843ZM271.186 675.205L270.534 675.33C269.493 675.504 268.556 675.196 267.562 674.917C265.833 675.611 263.626 676.698 262.487 678.188C262.796 678.843 263.154 679.407 263.177 680.141L262.576 680.503L270.096 683.519L275.2 685.415L282.95 688.184L283.334 688.323L290.606 690.708C291.891 691.138 293.535 691.945 294.858 692.06C307.983 695.831 320.851 699.1 334.416 700.986C337.263 701.382 340.204 702.067 343.077 702.001C344.228 702 345.517 701.839 346.573 702.354L348.75 701.909L349.08 701.345C349.786 700.19 350.662 699.869 351.938 699.566C353.171 700.38 354.657 699.474 355.924 700.131C357.261 700.824 358.704 700.974 360.193 701.102L360.63 701.137C361.775 701.24 362.722 701.38 363.805 701.774C365.119 701.808 366.616 701.998 367.881 701.638C368.553 701.447 368.833 701.526 369.513 701.604C372.075 701.897 374.724 699.861 377.355 699.419C379.635 699.036 382.015 699.465 384.305 699.587C387.746 699.771 391.985 699.595 395.302 700.436C397.218 700.922 398.445 702.495 400.16 703.211C401.026 703.573 403.23 703.523 404.189 703.407L403.602 702.99C403.913 700.618 399.622 699.427 398.413 697.405C397.973 696.671 397.528 696.652 396.76 696.301L399.492 695.634L429.375 692.994C452.306 689.876 473.636 683.142 495.237 675.088C510.644 669.344 525.819 661.407 539.895 652.96C558.717 641.666 577.362 628.01 593.318 612.893C622.039 585.681 644.519 552.886 660.935 516.989C680.148 474.978 688.822 429.426 689.142 383.396C689.207 373.961 689.286 364.273 688.399 354.871C685.539 324.55 678.126 295.168 667.49 266.683C638.73 189.66 578.493 125.694 503.737 91.6991C473.594 77.9917 440.995 69.1651 407.978 66.3319C400.317 65.6744 392.563 65.6308 384.877 65.6377C348.944 65.6699 313.258 72.1447 279.656 84.9269C250.823 95.8948 223.651 111.94 199.504 131.062C182.404 144.605 166.345 159.443 152.232 176.119C144.573 185.169 137.689 194.928 131.118 204.785C120.721 220.382 111.418 236.301 103.772 253.443C69.8175 329.565 66.6325 420.427 96.5838 498.323C110.036 533.309 129.309 565.78 154.812 593.37C164.716 604.084 175.617 613.851 186.79 623.212C203.593 637.292 221.879 650.231 241.165 660.712L271.186 675.205ZM262.576 680.503L263.177 680.141C263.154 679.407 262.796 678.843 262.487 678.188C263.626 676.698 265.833 675.611 267.562 674.917C268.556 675.196 269.493 675.504 270.534 675.33L271.186 675.205L241.165 660.712C221.879 650.231 203.593 637.292 186.79 623.212C175.617 613.851 164.716 604.084 154.812 593.37C129.309 565.78 110.036 533.309 96.5838 498.323C66.6325 420.427 69.8175 329.565 103.772 253.443C111.418 236.301 120.721 220.382 131.118 204.785C137.689 194.928 144.573 185.169 152.232 176.119C166.345 159.443 182.404 144.605 199.504 131.062C223.651 111.94 250.823 95.8948 279.656 84.9269C313.258 72.1447 348.944 65.6699 384.877 65.6377C392.563 65.6308 400.317 65.6744 407.978 66.3319C440.995 69.1651 473.594 77.9917 503.737 91.6991C578.493 125.694 638.73 189.66 667.49 266.683C678.126 295.168 685.539 324.55 688.399 354.871C689.286 364.273 689.207 373.961 689.142 383.396C688.822 429.426 680.148 474.978 660.935 516.989C644.519 552.886 622.039 585.681 593.318 612.893C577.362 628.01 558.717 641.666 539.895 652.96C525.819 661.407 510.644 669.344 495.237 675.088C473.636 683.142 452.306 689.876 429.375 692.994L399.492 695.634L396.76 696.301C397.528 696.652 397.973 696.671 398.413 697.405C399.622 699.427 403.913 700.618 403.602 702.99L404.189 703.407L404.925 703.545C411.386 703.494 418.05 702.693 424.478 701.979C452.172 698.899 479.061 691.622 504.764 680.912C536.664 667.62 565.944 648.816 591.888 626.062C605.732 613.921 618.742 600.72 630.013 586.125C649.431 560.979 664.538 533.01 676.463 503.625C688.217 474.662 695.935 443.493 698.734 412.36C700.852 388.811 700.135 364.792 697.467 341.338C695.494 324 692.36 306.951 687.512 290.171C684.069 278.254 679.608 266.621 674.748 255.216C655.969 211.146 627.827 170.311 592.136 138.279C586.32 133.06 580.099 128.332 573.884 123.609C548.634 104.419 521.198 88.7727 491.752 76.9758C459.785 64.1688 424.27 56.4767 389.762 55.812C382.904 55.6799 376.195 56.1334 369.362 56.5233C333.125 58.5913 297.774 67.0755 264.461 81.4682C214.626 102.998 170.244 136.657 136.966 179.627C116.617 205.902 100.348 235.674 88.1578 266.552C71.1496 309.635 63.7624 356.942 66.5457 403.193C67.3561 416.659 69.2302 430.042 71.6303 443.307C75.933 467.087 82.6128 490.395 92.2976 512.561C119.095 573.892 165.288 625.733 222.538 660.209C235.314 667.903 248.676 675.051 262.576 680.503ZM363.805 701.774L362.062 702.251C362.397 702.813 363.148 702.92 363.75 703.125L364.312 703.322L358.747 703.556C364.716 704.2 370.848 704.144 376.849 704.238C386.14 704.384 395.596 704.401 404.865 703.663L404.925 703.545L404.189 703.407C403.23 703.523 401.026 703.573 400.16 703.211C398.445 702.495 397.218 700.922 395.302 700.436C391.985 699.595 387.746 699.771 384.305 699.587C382.015 699.465 379.635 699.036 377.355 699.419C374.724 699.861 372.075 701.897 369.513 701.604C368.833 701.526 368.553 701.447 367.881 701.638C366.616 701.998 365.119 701.808 363.805 701.774ZM346.573 702.354C345.517 701.839 344.228 702 343.077 702.001C345.502 702.537 347.82 702.478 350.266 702.72C353.112 703 355.882 703.418 358.747 703.556L364.312 703.322L363.75 703.125C363.148 702.92 362.397 702.813 362.062 702.251L363.805 701.774C362.722 701.38 361.775 701.24 360.63 701.137L360.193 701.102C358.704 700.974 357.261 700.824 355.924 700.131C354.657 699.474 353.171 700.38 351.938 699.566C350.662 699.869 349.786 700.19 349.08 701.345L348.75 701.909L346.573 702.354Z"/>
	<path fill="#E5E4E4" fill-opacity="0.27843139" transform="scale(0.666667 0.666667)" d="M346.573 702.354L348.75 701.909L349.08 701.345C349.786 700.19 350.662 699.869 351.938 699.566C353.171 700.38 354.657 699.474 355.924 700.131C357.261 700.824 358.704 700.974 360.193 701.102L360.63 701.137C361.775 701.24 362.722 701.38 363.805 701.774L362.062 702.251C362.397 702.813 363.148 702.92 363.75 703.125L364.312 703.322L358.747 703.556C355.882 703.418 353.112 703 350.266 702.72C347.82 702.478 345.502 702.537 343.077 702.001C344.228 702 345.517 701.839 346.573 702.354Z"/>
	<path fill="#E4E4E4" fill-opacity="0.44705883" transform="scale(0.666667 0.666667)" d="M363.805 701.774C365.119 701.808 366.616 701.998 367.881 701.638C368.553 701.447 368.833 701.526 369.513 701.604C372.075 701.897 374.724 699.861 377.355 699.419C379.635 699.036 382.015 699.465 384.305 699.587C387.746 699.771 391.985 699.595 395.302 700.436C397.218 700.922 398.445 702.495 400.16 703.211C401.026 703.573 403.23 703.523 404.189 703.407L404.925 703.545L404.865 703.663C395.596 704.401 386.14 704.384 376.849 704.238C370.848 704.144 364.716 704.2 358.747 703.556L364.312 703.322L363.75 703.125C363.148 702.92 362.397 702.813 362.062 702.251L363.805 701.774Z"/>
	<path fill="#766B64" transform="scale(0.666667 0.666667)" d="M271.186 675.205L241.165 660.712C221.879 650.231 203.593 637.292 186.79 623.212C175.617 613.851 164.716 604.084 154.812 593.37C129.309 565.78 110.036 533.309 96.5838 498.323C66.6325 420.427 69.8175 329.565 103.772 253.443C111.418 236.301 120.721 220.382 131.118 204.785C137.689 194.928 144.573 185.169 152.232 176.119C166.345 159.443 182.404 144.605 199.504 131.062C223.651 111.94 250.823 95.8948 279.656 84.9269C313.258 72.1447 348.944 65.6699 384.877 65.6377C392.563 65.6308 400.317 65.6744 407.978 66.3319C440.995 69.1651 473.594 77.9917 503.737 91.6991C578.493 125.694 638.73 189.66 667.49 266.683C678.126 295.168 685.539 324.55 688.399 354.871C689.286 364.273 689.207 373.961 689.142 383.396C688.822 429.426 680.148 474.978 660.935 516.989C644.519 552.886 622.039 585.681 593.318 612.893C577.362 628.01 558.717 641.666 539.895 652.96C525.819 661.407 510.644 669.344 495.237 675.088C473.636 683.142 452.306 689.876 429.375 692.994L399.492 695.634L396.76 696.301C397.528 696.652 397.973 696.671 398.413 697.405C399.622 699.427 403.913 700.618 403.602 702.99L404.189 703.407C403.23 703.523 401.026 703.573 400.16 703.211C398.445 702.495 397.218 700.922 395.302 700.436C391.985 699.595 387.746 699.771 384.305 699.587C382.015 699.465 379.635 699.036 377.355 699.419C374.724 699.861 372.075 701.897 369.513 701.604C368.833 701.526 368.553 701.447 367.881 701.638C366.616 701.998 365.119 701.808 363.805 701.774C362.722 701.38 361.775 701.24 360.63 701.137L360.193 701.102C358.704 700.974 357.261 700.824 355.924 700.131C354.657 699.474 353.171 700.38 351.938 699.566C350.662 699.869 349.786 700.19 349.08 701.345L348.75 701.909L346.573 702.354C345.517 701.839 344.228 702 343.077 702.001C340.204 702.067 337.263 701.382 334.416 700.986C320.851 699.1 307.983 695.831 294.858 692.06C293.535 691.945 291.891 691.138 290.606 690.708L283.334 688.323L282.95 688.184L275.2 685.415L270.096 683.519L262.576 680.503L263.177 680.141C263.154 679.407 262.796 678.843 262.487 678.188C263.626 676.698 265.833 675.611 267.562 674.917C268.556 675.196 269.493 675.504 270.534 675.33L271.186 675.205ZM372.999 79.3125C363.179 79.5392 353.274 80.7498 343.557 82.1558C277.221 91.7538 216.163 125.465 170.07 173.721C115.773 230.567 83.7652 311.122 85.6803 389.867C86.9888 443.669 101.795 495.374 129.267 541.608L136.455 553.725C137.734 555.858 138.848 558.104 140.343 560.096C151.012 550.964 162.232 542.177 171.662 531.719C170.514 529.605 169.082 527.731 167.834 525.687L157.826 508.031C140.295 473.528 129.667 435.709 128 396.975L128.185 366.165L137.901 366.05C137.497 372.738 137.048 379.359 137.317 386.062C137.957 401.958 140.662 417.861 144.018 433.384C149.924 460.71 158.275 487.517 172.369 511.825C179.207 523.619 187.685 534.564 196.715 544.758C224.924 576.599 261.759 602.736 301.688 617.627C309.947 620.707 318.441 622.946 326.942 625.238C341.036 629.038 355.751 632.103 370.346 632.975C390.291 634.167 410.283 632.707 429.938 629.252C437.47 627.928 444.898 626.411 452.23 624.188C486.663 613.746 518.778 594.112 545.483 570.195C571.89 546.544 592.216 517.709 606.521 485.34C615.893 462.335 622.539 439.036 626.027 414.41C627.703 402.577 628.773 390.983 628.52 379.009C628.431 374.811 627.609 370.702 627.312 366.523L637.044 366.49C637.778 374.481 637.617 382.631 637.653 390.652C637.683 397.543 637.948 404.747 637.335 411.61C634.168 447.123 622.634 482.072 605.373 513.158C598.744 525.096 591.125 537.105 582.36 547.606C575.066 556.346 567.596 565.165 559.469 573.145C545.501 586.862 529.367 598.595 512.658 608.717C503.775 614.098 494.764 619.164 485.265 623.403C464.754 632.554 442.701 638.473 420.659 642.582C420.401 642.63 420.058 642.529 419.885 642.726C419.602 643.049 419.721 679.972 420.228 683.21L420.347 683.739C427.543 683.423 435.191 681.804 442.254 680.404C460.558 676.776 477.976 670.901 495.193 663.783C525.899 651.089 554.962 634.309 579.79 612.046C582.788 609.357 586.379 606.82 589.086 603.888L563.735 578.862C564.794 577.651 566.312 576.737 567.595 575.763C569.727 574.143 571.814 572.471 573.794 570.667C576.7 568.021 579.38 564.068 582.487 561.872C584.666 563.734 586.615 566.227 588.378 568.492C585.552 572.31 581.918 575.364 578.336 578.451L580.813 581.275L588.278 575.654C594.758 578.052 600.262 581.643 606.363 584.783C610.064 581.44 613.039 577.56 616.078 573.626L629.724 554.094C641.222 536.001 651.495 517.177 659.376 497.207C666.642 478.793 671.805 459.795 675.395 440.356C677.374 429.641 679.12 418.534 679.654 407.637C680.322 394.017 681.411 380.67 680.56 367.005C680.428 364.869 679.985 362.772 679.814 360.643C674.539 294.713 647.764 227.846 603.049 178.677C583.433 157.107 561.138 138.149 536.263 122.893C523.137 114.844 509.287 108.136 495.188 102.003C466.142 89.3683 434.681 81.0699 402.938 79.5192L372.999 79.3125ZM312.134 633.245C313.782 638.087 315.302 642.669 312.818 647.56C310.658 651.814 307.398 653.092 303.101 654.403C305.921 660.057 307.441 665.849 309.525 671.779C310.069 673.327 310.417 675.208 311.202 676.629C323.562 679.761 335.793 681.746 348.441 683.293C355.768 684.189 363.208 685.133 370.593 685.282L379.884 685.533C380.581 676.584 379.781 667.278 379.772 658.291L379.943 651.086C380.066 649.029 380.37 647.026 379.848 645C378.798 644.174 376.606 644.202 375.302 644.062L360.217 642.797C343.906 640.635 328.025 637.52 312.134 633.245ZM229.517 593.812C228.655 596.951 229.1 600.44 229.267 603.656L229.622 615.328C229.764 623.825 229.806 632.461 229.075 640.933C238.047 647.338 248.218 652.651 258.042 657.66C261.842 659.598 265.968 661.274 269.596 663.486L273.36 652.912L284.234 623.372C279.101 620.395 273.61 618.267 268.392 615.477L236.788 596.832C235.101 595.783 231.757 593.199 229.802 593.725L229.517 593.812ZM196.772 563.059L196.454 563.418L167.81 591.499L197.967 617.337C199.009 618.036 199.174 618.427 200.443 618.188C203.563 615.62 205.5 612.267 208.052 609.188C213.656 602.424 220.106 595.949 224.853 588.536L196.772 563.059ZM176.296 539.906L145.586 565.641L162.379 584.773L163.312 585.347C165.014 584.413 166.341 582.853 167.692 581.48L175.293 573.543C180.588 567.961 186.293 562.529 191.038 556.456C187.886 553.282 184.723 549.985 181.851 546.557C179.986 544.333 178.547 541.776 176.296 539.906ZM405.136 643.656L387.738 645.02L388.189 671.396C388.2 675.812 387.919 680.573 388.614 684.936C393.759 685.974 399.317 684.947 404.531 684.776C407.167 684.715 409.938 684.812 412.526 684.288L412.197 668.506L403.198 668.723L402.425 662.378C405.696 662.004 409.283 661.89 412.475 661.106L412.572 650.291C412.578 648.202 412.708 645.963 411.938 643.995C410.153 643.139 407.088 643.384 405.136 643.656ZM291.318 627.558L277.259 666.067L301.489 674.55L299.953 668.92C298.207 663.502 296.298 657.741 293.116 652.988L292.795 652.502C291.384 650.46 288.673 649.473 287.505 647.437C288.266 646.825 289.085 646.575 290.062 646.63C293.96 646.85 299.625 650.108 303.09 647.293C305.61 645.246 306.706 642.375 306.87 639.191C306.961 637.43 306.491 635.826 305.302 634.502C302.108 630.945 295.662 629.345 291.318 627.558ZM296.255 683.859L295.95 684.325L296.885 685.312C296.803 685.864 296.692 686.227 296.499 686.744C295.736 688.779 296.976 690.053 294.923 691.676L294.858 692.06C307.983 695.831 320.851 699.1 334.416 700.986C337.263 701.382 340.204 702.067 343.077 702.001C344.228 702 345.517 701.839 346.573 702.354C346.467 700.448 347.671 699.027 347.808 697.202C347.863 696.47 347.983 695.786 348.112 695.062L349.447 694.642L349.231 694.134L296.255 683.859ZM215.646 612.99L203.929 623.412C207.356 626.99 212.33 629.748 216.411 632.598L222.575 636.417C223.652 630.961 223.53 625.749 223.512 620.216L215.646 612.99ZM262.576 680.503L270.096 683.519L275.2 685.415L282.95 688.184L283.334 688.323L283.734 687.983C284.583 687.58 285.052 687.725 285.858 687.029C285.95 685.793 285.353 684.899 284.706 683.907L284.519 683.625C284.668 683.137 284.772 682.832 285.1 682.428C285.512 681.92 285.258 682.319 285.562 681.777L284.441 681.188C283.668 680.734 283.207 680.496 282.314 680.287L281.772 679.851L281.972 679.269L280.037 678.456L276.802 677.431C274.951 676.576 273.161 675.734 271.186 675.205L270.534 675.33C269.493 675.504 268.556 675.196 267.562 674.917C265.833 675.611 263.626 676.698 262.487 678.188C262.796 678.843 263.154 679.407 263.177 680.141L262.576 680.503ZM367.65 695.707L369.375 696.178C368.031 696.888 366.611 697.029 365.131 697.254C365.324 697.653 365.582 697.626 365.982 697.777C365.458 698.289 364.985 698.32 364.292 698.505L363.938 699.375L365.185 699.469L360.63 701.137C361.775 701.24 362.722 701.38 363.805 701.774C365.119 701.808 366.616 701.998 367.881 701.638C368.553 701.447 368.833 701.526 369.513 701.604C372.075 701.897 374.724 699.861 377.355 699.419C379.635 699.036 382.015 699.465 384.305 699.587C387.746 699.771 391.985 699.595 395.302 700.436C397.218 700.922 398.445 702.495 400.16 703.211C401.026 703.573 403.23 703.523 404.189 703.407L403.602 702.99C403.913 700.618 399.622 699.427 398.413 697.405C397.973 696.671 397.528 696.652 396.76 696.301L399.492 695.634L367.65 695.707ZM589.995 583.688C588.344 584.599 587.119 586.051 585.817 587.393C588.115 590.643 591.006 594.646 594.188 597.038C595.317 596.827 595.386 596.819 596.175 595.992L601.615 590.232L594.969 586.283C593.464 585.302 591.837 583.881 589.995 583.688ZM349.231 694.134L349.447 694.642L348.112 695.062C347.983 695.786 347.863 696.47 347.808 697.202C347.671 699.027 346.467 700.448 346.573 702.354L348.75 701.909L349.08 701.345C349.786 700.19 350.662 699.869 351.938 699.566C353.171 700.38 354.657 699.474 355.924 700.131C357.261 700.824 358.704 700.974 360.193 701.102L360.63 701.137L365.185 699.469L363.938 699.375L364.292 698.505C364.985 698.32 365.458 698.289 365.982 697.777C365.582 697.626 365.324 697.653 365.131 697.254C366.611 697.029 368.031 696.888 369.375 696.178L367.65 695.707L349.231 694.134ZM281.972 679.269L281.772 679.851L282.314 680.287C283.207 680.496 283.668 680.734 284.441 681.188L285.562 681.777C285.258 682.319 285.512 681.92 285.1 682.428C284.772 682.832 284.668 683.137 284.519 683.625L284.706 683.907C285.353 684.899 285.95 685.793 285.858 687.029C285.052 687.725 284.583 687.58 283.734 687.983L283.334 688.323L290.606 690.708C291.891 691.138 293.535 691.945 294.858 692.06L294.923 691.676C296.976 690.053 295.736 688.779 296.499 686.744C296.692 686.227 296.803 685.864 296.885 685.312L295.95 684.325L296.255 683.859L281.972 679.269ZM220.18 608.438C219.446 609.156 218.664 609.76 218.391 610.787C219.255 611.562 219.988 611.827 221.062 612.172L222.171 612.188C222.265 610.836 222.025 609.908 221.613 608.625L220.909 608.198L220.18 608.438Z"/>
	<path fill="#E5E4E4" fill-opacity="0.24705882" transform="scale(0.666667 0.666667)" d="M281.972 679.269L296.255 683.859L295.95 684.325L296.885 685.312C296.803 685.864 296.692 686.227 296.499 686.744C295.736 688.779 296.976 690.053 294.923 691.676L294.858 692.06C293.535 691.945 291.891 691.138 290.606 690.708L283.334 688.323L283.734 687.983C284.583 687.58 285.052 687.725 285.858 687.029C285.95 685.793 285.353 684.899 284.706 683.907L284.519 683.625C284.668 683.137 284.772 682.832 285.1 682.428C285.512 681.92 285.258 682.319 285.562 681.777L284.441 681.188C283.668 680.734 283.207 680.496 282.314 680.287L281.772 679.851L281.972 679.269Z"/>
	<path fill="#E4E4E4" fill-opacity="0.22352941" transform="scale(0.666667 0.666667)" d="M349.231 694.134L367.65 695.707L369.375 696.178C368.031 696.888 366.611 697.029 365.131 697.254C365.324 697.653 365.582 697.626 365.982 697.777C365.458 698.289 364.985 698.32 364.292 698.505L363.938 699.375L365.185 699.469L360.63 701.137L360.193 701.102C358.704 700.974 357.261 700.824 355.924 700.131C354.657 699.474 353.171 700.38 351.938 699.566C350.662 699.869 349.786 700.19 349.08 701.345L348.75 701.909L346.573 702.354C346.467 700.448 347.671 699.027 347.808 697.202C347.863 696.47 347.983 695.786 348.112 695.062L349.447 694.642L349.231 694.134Z"/>
	<defs>
		<linearGradient id="gradient_0" gradientUnits="userSpaceOnUse" x1="377.72034" y1="704.27063" x2="382.40466" y2="691.85437">
			<stop offset="0" stop-color="#E6E5E4" stop-opacity="0.3019608"/>
			<stop offset="1" stop-color="#E4E3E3" stop-opacity="0.38431373"/>
		</linearGradient>
	</defs>
	<path fill="url(#gradient_0)" transform="scale(0.666667 0.666667)" d="M367.65 695.707L399.492 695.634L396.76 696.301C397.528 696.652 397.973 696.671 398.413 697.405C399.622 699.427 403.913 700.618 403.602 702.99L404.189 703.407C403.23 703.523 401.026 703.573 400.16 703.211C398.445 702.495 397.218 700.922 395.302 700.436C391.985 699.595 387.746 699.771 384.305 699.587C382.015 699.465 379.635 699.036 377.355 699.419C374.724 699.861 372.075 701.897 369.513 701.604C368.833 701.526 368.553 701.447 367.881 701.638C366.616 701.998 365.119 701.808 363.805 701.774C362.722 701.38 361.775 701.24 360.63 701.137L365.185 699.469L363.938 699.375L364.292 698.505C364.985 698.32 365.458 698.289 365.982 697.777C365.582 697.626 365.324 697.653 365.131 697.254C366.611 697.029 368.031 696.888 369.375 696.178L367.65 695.707Z"/>
	<path fill="#E4E4E4" fill-opacity="0.36470589" transform="scale(0.666667 0.666667)" d="M262.576 680.503L263.177 680.141C263.154 679.407 262.796 678.843 262.487 678.188C263.626 676.698 265.833 675.611 267.562 674.917C268.556 675.196 269.493 675.504 270.534 675.33L271.186 675.205C273.161 675.734 274.951 676.576 276.802 677.431L280.037 678.456L281.972 679.269L281.772 679.851L282.314 680.287C283.207 680.496 283.668 680.734 284.441 681.188L285.562 681.777C285.258 682.319 285.512 681.92 285.1 682.428C284.772 682.832 284.668 683.137 284.519 683.625L284.706 683.907C285.353 684.899 285.95 685.793 285.858 687.029C285.052 687.725 284.583 687.58 283.734 687.983L283.334 688.323L282.95 688.184L275.2 685.415L270.096 683.519L262.576 680.503ZM270.096 683.519L275.2 685.415L275.589 685.048C276.318 684.557 276.6 684.646 277.1 683.812C276.522 682.507 275.974 681.253 275.596 679.875C275.876 679.497 276.098 679.17 276.317 678.75C275.243 677.952 274.92 677.561 273.562 677.434L273.314 677.701C272.147 678.934 271.621 679.251 269.883 679.28L268.688 679.309C268.012 679.453 267.92 679.681 267.141 679.614L266.438 679.546L265.688 680.225L265.923 680.876C267.739 681.22 269.211 681.591 270.562 682.912L270.096 683.519ZM276.802 677.431L276.466 677.917L277.935 678.938L277.562 679.45C277.192 679.985 277.05 680.254 276.917 680.865C277.683 681.939 278.176 683.134 279.512 683.52C281.629 684.132 282.231 683.408 284.062 685.047L284.493 686.812C283.873 687.272 283.407 687.562 282.95 688.184L283.334 688.323L283.734 687.983C284.583 687.58 285.052 687.725 285.858 687.029C285.95 685.793 285.353 684.899 284.706 683.907L284.519 683.625C284.668 683.137 284.772 682.832 285.1 682.428C285.512 681.92 285.258 682.319 285.562 681.777L284.441 681.188C283.668 680.734 283.207 680.496 282.314 680.287L281.772 679.851L281.972 679.269L280.037 678.456L276.802 677.431Z"/>
	<path fill="#E5E4E3" fill-opacity="0.29803923" transform="scale(0.666667 0.666667)" d="M276.802 677.431L280.037 678.456L281.972 679.269L281.772 679.851L282.314 680.287C283.207 680.496 283.668 680.734 284.441 681.188L285.562 681.777C285.258 682.319 285.512 681.92 285.1 682.428C284.772 682.832 284.668 683.137 284.519 683.625L284.706 683.907C285.353 684.899 285.95 685.793 285.858 687.029C285.052 687.725 284.583 687.58 283.734 687.983L283.334 688.323L282.95 688.184C283.407 687.562 283.873 687.272 284.493 686.812L284.062 685.047C282.231 683.408 281.629 684.132 279.512 683.52C278.176 683.134 277.683 681.939 276.917 680.865C277.05 680.254 277.192 679.985 277.562 679.45L277.935 678.938L276.466 677.917L276.802 677.431ZM282.314 680.287L281.772 679.851L281.972 679.269L280.037 678.456L279.002 678.752C279.011 679.508 278.902 679.159 279.342 679.793L278.414 680.543L278.812 681.588C279.989 682.003 279.974 682.106 281.108 681.629L281.498 681.121C282.006 680.475 281.77 680.703 282.314 680.287Z"/>
	<path fill="#E5E4E3" fill-opacity="0.26666668" transform="scale(0.666667 0.666667)" d="M282.314 680.287C281.77 680.703 282.006 680.475 281.498 681.121L281.108 681.629C279.974 682.106 279.989 682.003 278.812 681.588L278.414 680.543L279.342 679.793C278.902 679.159 279.011 679.508 279.002 678.752L280.037 678.456L281.972 679.269L281.772 679.851L282.314 680.287Z"/>
	<path fill="#E5E4E3" fill-opacity="0.42745098" transform="scale(0.666667 0.666667)" d="M270.096 683.519L270.562 682.912C269.211 681.591 267.739 681.22 265.923 680.876L265.688 680.225L266.438 679.546L267.141 679.614C267.92 679.681 268.012 679.453 268.688 679.309L269.883 679.28C271.621 679.251 272.147 678.934 273.314 677.701L273.562 677.434C274.92 677.561 275.243 677.952 276.317 678.75C276.098 679.17 275.876 679.497 275.596 679.875C275.974 681.253 276.522 682.507 277.1 683.812C276.6 684.646 276.318 684.557 275.589 685.048L275.2 685.415L270.096 683.519Z"/>
	<path fill="#766B64" transform="scale(0.666667 0.666667)" d="M300.652 353.301C303.41 354.51 306.053 356.363 308.609 357.949C314.649 361.7 321.273 366.302 328.434 367.532C331.316 368.027 334.219 367.926 337.125 367.776L337.397 368.215L336.188 368.998C332.983 370.415 330.448 370.601 326.986 370.546C315.245 370.361 308.138 361.005 300.652 353.301Z"/>
	<path fill="#766B64" transform="scale(0.666667 0.666667)" d="M465.145 354.562C465.872 354.347 465.472 354.4 466.352 354.472C462.295 358.67 458.277 362.882 453.415 366.189C446.915 370.608 440.854 371.385 433.243 369.918C432.21 369.515 431.158 369.167 430.239 368.535C430.374 368.369 430.459 368.143 430.644 368.035C430.973 367.845 432.621 367.888 433.146 367.848C435.516 367.663 437.805 367.485 440.128 366.938C449.811 364.658 456.545 359.045 465.145 354.562Z"/>
	<path fill="#766B64" transform="scale(0.666667 0.666667)" d="M397.969 255.562C398.303 255.475 398.446 255.42 398.83 255.422C404.376 255.453 410.631 257.065 416.06 258.122C437.453 262.291 458.964 268.546 475.005 284.165C470.558 282.208 466.302 279.741 461.933 277.603C449.449 271.493 436.734 265.598 423.408 261.563C418.311 260.02 412.882 258.491 407.621 257.669C405.215 257.292 400.71 257.311 398.635 256.196C398.365 256.051 398.191 255.774 397.969 255.562Z"/>
	<path fill="#766B64" transform="scale(0.666667 0.666667)" d="M364.616 255.524L367.5 255.35L367.688 255.755C366.423 256.423 364.891 256.534 363.497 256.779L354.964 258.245L342 261.662C332.812 264.426 323.769 267.743 315.159 271.996C306.693 276.179 298.616 281.201 290.418 285.88C289.672 286.282 289.041 286.842 288.188 286.725C289.972 284.604 292.714 282.869 294.855 281.078C314.442 264.701 339.908 258.719 364.616 255.524Z"/>
	<path fill="#766B64" transform="scale(0.666667 0.666667)" d="M267.687 254.721C274.984 253.63 283.845 258.068 289.562 262.234C282.891 262.638 276.914 262.09 270.285 263.659C266.2 264.491 255.276 269.13 252.25 267.938C252.097 266.729 252.468 265.82 253.082 264.775C256.273 259.348 261.72 256.134 267.687 254.721Z"/>
	<path fill="#766B64" transform="scale(0.666667 0.666667)" d="M496.685 254.738L498.422 254.797C504.85 255.28 511.629 259.344 515.523 264.455C516.095 265.206 516.473 265.989 516.325 266.951L515.903 267.212C512.363 269.096 503.748 265.007 499.942 264.044C491.306 262.182 484.484 262.326 475.841 263.784C482.498 259.528 488.734 255.914 496.685 254.738Z"/>
	<path fill="#766B64" transform="scale(0.666667 0.666667)" d="M379.144 536.02C395.508 534.044 414.597 541.429 427.778 550.764L385.937 545.722C369.578 545.477 353.442 547.911 337.469 551.29C342.606 547.77 347.635 544.48 353.391 542.027C361.537 538.554 370.423 537.133 379.144 536.02Z"/>
	<path fill="#766B64" transform="scale(0.666667 0.666667)" d="M229.231 213.53C235.744 213.294 242.679 212.543 249.032 214.279C261.568 217.704 269.31 227.835 275.389 238.665L269.207 233.318C261.622 227.362 252.741 222.824 242.992 222.191C239.317 221.953 235.527 222.375 231.882 222.841C231.189 224.449 231.127 226.743 230.919 228.485C230.326 233.443 229.611 238.776 229.895 243.765C230.618 256.474 236.813 265.926 246 274.26C251.17 278.763 256.476 281.006 263.28 281.448C258.361 284.029 253.12 285.925 248.251 288.599C241.53 292.292 236.424 298.159 231.712 304.084L240.414 282.274L234.921 277.206C224.597 266.032 220.673 250.995 222.432 236.062C223.302 228.675 225.02 221.525 225.36 214.058L229.231 213.53Z"/>
	<path fill="#766B64" transform="scale(0.666667 0.666667)" d="M524.093 213.501C525.775 213.058 528.162 213.24 529.913 213.254C534.648 213.289 539.362 213.396 544.034 214.23C544.387 216.934 544.341 219.684 544.765 222.375C545.601 227.678 547.23 233.284 547.44 238.634C548.137 256.332 540.762 269.722 529.048 282.401C528.59 285.338 535.049 299.806 536.48 304.09C532.476 299.114 528.413 294.124 523.169 290.366C517.947 286.625 511.738 284.337 505.795 282.021C508.461 281.387 510.892 281.48 513.475 280.325C517.459 278.583 521.29 276.524 524.422 273.442C532.374 265.614 538.825 252.74 539.283 241.509C539.537 235.28 538.536 229.031 538.552 222.763C529.574 221.412 520.826 222.557 512.25 225.361C504.541 227.882 498.354 233.609 491.853 238.209L495.45 233.177C503.095 223.006 511.109 215.379 524.093 213.501Z"/>
	<path fill="#766B64" transform="scale(0.666667 0.666667)" d="M586.071 333.899C593.932 341.375 599.646 350.505 603.002 360.796C606.472 371.435 606.796 382.478 606.758 393.564C606.635 428.975 598.901 463.707 582.828 495.348C573.613 513.489 561.438 529.298 547.405 543.937C523.766 568.601 495.619 588.716 462.949 599.391L454.189 602.089C455.509 599.809 459.288 597.281 461.269 595.357C465.768 590.986 469.89 585.727 475.055 582.124C478.63 579.629 482.974 577.787 486.843 575.788C491.558 573.351 496.182 570.662 500.625 567.757C523.535 552.78 543.901 533.248 560.065 511.193C567.173 501.493 573.516 491.687 578.124 480.539C589.016 454.191 596.484 425.302 596.62 396.661C596.646 391.162 596.036 385.775 595.708 380.297C594.76 364.499 592.181 348.584 586.071 333.899Z"/>
	<path fill="#766B64" transform="scale(0.666667 0.666667)" d="M177.688 336.188L178.201 336.206C178.678 336.794 178.296 337.31 178.108 338.019L173.812 352.627C170.033 367.852 168.399 384.783 169.671 400.418C171.43 422.046 175.857 443.646 182.867 464.181C185.75 472.625 188.803 480.906 193.165 488.72C200.933 502.635 211.299 515.305 221.839 527.198C230.863 537.381 240.516 547.714 251.308 556.055C258.747 561.804 266.288 567.37 274.374 572.188C280.199 575.659 286.733 578.128 292.055 582.394C295.889 585.467 298.775 589.336 302.126 592.876C305.14 596.061 308.446 598.867 311.792 601.689C311.133 601.594 310.613 601.494 309.994 601.234C308.026 600.408 305.845 599.912 303.791 599.309C298.266 597.515 292.685 595.754 287.353 593.429C263.783 583.153 241.853 565.389 223.909 547.14C209.307 532.289 195.773 515.674 185.587 497.447C181.085 489.393 177.49 480.695 174.219 472.072C163.738 444.443 158.581 415.955 158.871 386.404C159.05 368.182 164.349 349.263 177.688 336.188Z"/>
	<path fill="#766B64" transform="scale(0.666667 0.666667)" d="M325.059 323.03C334.134 322.311 344.001 323.672 351.531 329.085C356.374 332.567 360.019 337.635 362.201 343.161C369.587 361.872 361.57 381.918 354.256 399.327L348.336 413.888L335.122 447.086C333.281 451.443 330.665 455.402 328.688 459.683C325.836 465.856 325.042 472.027 326.203 478.711C328.24 490.441 334.729 501.347 344.564 508.24C349.72 511.854 357.586 516.573 364.184 515.125C367.217 514.46 369.671 512.314 371.285 509.744C373.014 506.99 373.058 503.325 372.323 500.25C371.636 497.37 369.686 494.406 367.651 492.299C365.226 489.788 362.697 487.652 359.557 486.089C353.602 483.123 346.888 481.943 341.239 478.306C338.507 476.547 336.156 473.934 335.556 470.634C335.19 468.617 335.936 466.48 337.098 464.85C339.491 461.494 343.528 459.772 347.499 459.19C354.764 458.127 364.835 459.57 370.721 464.287C372.217 465.487 373.703 467.3 373.757 469.312C373.786 470.41 373.633 471.044 372.938 471.853C368.556 473.464 363.758 469.598 359.777 468.069C357.982 467.379 355.987 467.086 354.077 466.939C349.001 466.546 345.099 468.511 341.316 471.701L359.24 476.86C366.822 479.756 374.584 484.973 377.892 492.628C380.817 499.398 380.96 507.549 378.175 514.391C376.58 518.311 373.973 521.279 370.048 522.921C363.487 525.665 354.748 524.393 348.328 521.729C336.018 516.622 325.62 504.797 320.58 492.626C317.214 484.38 316.608 476.206 316.202 467.418C315.395 449.976 316.658 431.191 308.309 415.317C300.298 400.086 287.773 387.681 271.385 381.868C266.619 380.177 261.515 379.301 256.664 377.796C259.645 377.252 263.058 377.396 266.094 377.278C278.279 376.801 290.957 376.697 302.229 382.049C314.493 387.873 321.693 396.008 326.18 408.759C319.692 401.682 312.474 397.402 303.801 393.545L308.44 399.086C316.19 408.734 321.864 423.062 323.172 435.358C323.815 441.407 323.382 448.121 322.729 454.172C326.157 448.331 328.8 441.353 331.23 435.049L340.286 411.254C345.754 396.829 353.417 382.463 355.421 366.988C356.518 358.518 355.766 349.28 350.302 342.36C345.689 336.516 338.428 332.327 330.995 331.516C319.986 330.313 308.07 333.298 298.882 339.512C294.828 342.255 291.245 345.698 287.463 348.801C287.696 347.704 289.117 346.154 289.777 345.181C291.963 341.953 293.913 338.39 296.396 335.39C303.62 326.661 314.219 323.908 325.059 323.03Z"/>
	<path fill="#766B64" transform="scale(0.666667 0.666667)" d="M438.958 322.656C443.608 322.23 448.902 323.163 453.375 324.42C467.267 328.324 473.521 337.795 480.283 349.743C479.588 349.489 478.745 348.349 478.211 347.814C476.406 346.004 474.567 344.18 472.591 342.557C467.599 338.456 461.978 335.273 455.845 333.21C446.919 330.206 436.394 330.419 427.898 334.751C422.316 337.597 417.846 342.694 415.962 348.689C414.151 354.449 413.667 360.86 414.611 366.82C416.201 376.853 420.057 386.358 423.711 395.777L434.962 424.68C438.427 433.754 440.785 443.239 445.278 451.901C445.655 450.736 445.324 448.639 445.297 447.375L445.442 438.158C446.456 421.08 454.682 406.342 465.113 393.254C458.454 396.522 450.944 399.345 445.279 404.275L441.075 407.744C444.253 400.165 448.341 394.004 454.757 388.747C470.885 375.53 490.989 376.616 510.473 378.469C503.784 380.074 496.998 381.546 490.688 384.355C481.365 388.505 473.492 395.894 467.605 404.129C462.003 411.965 457.22 420.802 455.044 430.249C453.419 437.305 453.401 445.032 453.356 452.252C453.271 465.939 453.022 479.428 448.025 492.366C444.399 501.486 437.448 509.893 429.66 515.784C421.793 521.734 410.997 525.695 401.051 524.143C396.682 523.461 393.317 521.112 390.775 517.577C386.777 512.014 386.397 504.949 387.554 498.376C389.853 485.315 402.548 478.058 414.287 474.845C419.018 473.55 423.299 473.506 427.442 470.516L427.052 470.244C420.926 466.026 414.391 465.765 407.625 468.662C404.238 470.111 401.364 471.703 397.688 472.364C396.802 472.038 396.307 471.794 395.707 471.041C395.002 470.158 394.809 469.553 394.975 468.415C395.286 466.28 397.212 464.418 398.86 463.164C403.744 459.447 413.647 457.309 419.714 458.15C424.221 458.775 429.579 460.586 432.288 464.438C433.541 466.219 433.785 468.344 433.336 470.451C432.769 473.111 430.442 475.692 428.255 477.193L427.705 477.562C423.207 480.647 418.17 482.482 413.091 484.358C408.011 486.235 402.99 487.91 399.236 492.045C395.982 495.63 394.591 500.04 394.854 504.854C394.974 507.047 396.328 510.893 398.223 512.27L398.812 512.655C401.182 514.228 404.247 514.802 407.062 514.509C418.019 513.368 427.399 505.071 434.037 496.856C440.031 489.438 443.674 478.933 442.821 469.365C442.19 462.277 438.326 457.354 435.878 450.973L427.743 428.062L416.115 399.893C411.555 388.924 406.147 377.491 404.993 365.543C403.883 354.034 405.778 342.818 413.43 333.777C420.124 325.868 428.98 323.441 438.958 322.656Z"/>
	<path fill="#766B64" transform="scale(0.666667 0.666667)" d="M279.414 290.438C280.269 290.232 279.897 290.175 280.54 290.438C278.18 293.077 274.383 295.108 271.457 297.131L261.75 304.503C244.181 319.113 229.103 335.104 216.961 354.506C212.803 361.15 208.62 368.459 206.801 376.138C205.363 382.211 205.484 388.075 205.489 394.251C205.495 403.477 205.846 412.366 206.828 421.549C207.973 432.255 209.858 442.792 212.303 453.271C213.723 459.359 215.1 465.623 217.966 471.229C223.472 481.996 233.799 490.2 242.244 498.627L275.334 531.297C296.417 550.583 319.032 568.446 335.935 591.763C338.401 595.166 340.473 598.764 342.655 602.346C345.794 602.796 349.132 602.62 352.308 602.643L369.299 602.683L422.292 602.566C423.846 601.32 425.088 599.263 426.413 597.744L436.9 585.676L455.438 566.1L486.384 537.171L509.321 514.638L545.854 478.341C548.336 475.666 550.57 472.631 552.066 469.29C554.03 464.905 554.914 460.17 555.943 455.505C560.801 433.483 561.995 410.796 560.972 388.307C560.69 382.104 559.825 375.964 557.767 370.082C555.938 364.855 552.982 359.823 550.163 355.076C537.877 334.389 521.64 317.558 503.074 302.49C499.666 299.724 496.039 297.093 492.355 294.705C490.233 293.329 487.948 292.375 486.067 290.648C494.133 293.21 501.84 295.594 509.472 299.344C511.281 300.114 513.047 301.259 514.683 302.338C535.268 315.917 549.385 335.179 560.989 356.625C564.224 362.605 567.839 369.067 569.184 375.781L569.324 376.5C570.081 380.217 570.165 383.962 570.383 387.739L571.053 399.705C571.529 418.881 568.471 438.083 564.398 456.751C562.511 465.4 560.651 474.622 556.277 482.41C553.083 488.099 547.818 492.398 543.133 496.824L530.1 509.227L499.401 538.788L459.815 574.63C452.493 581.871 445.214 589.053 438.694 597.04C434.986 601.583 432.016 606.843 427.993 611.08C422.37 612.986 415.653 613.23 409.754 613.701C385.275 615.655 360.992 615.268 336.726 611.056C334.164 603.989 329.465 598.237 324.772 592.495C320.567 587.351 316.419 582.274 311.742 577.54C298.456 564.089 283.248 552.652 269.314 539.916L232.683 504.409C225.533 497.368 215.812 489.961 211.849 480.568C208.478 472.578 206.508 463.815 204.502 455.385C200.026 436.568 196.914 418.18 196.266 398.812C195.933 388.873 195.779 378.372 199.579 369.023C202.394 362.098 206.198 355.65 210.124 349.308C221.767 330.495 237.096 311.684 256.399 300.29C263.642 296.015 271.708 293.68 279.414 290.438Z"/>
	<path fill="#766B64" transform="scale(0.666667 0.666667)" d="M377.381 108.535C387.069 108.015 396.754 108.612 406.414 109.344C445.64 112.315 484.32 122.05 519.014 140.914C549.694 157.595 578.267 180.921 600.106 208.214C618.508 231.212 633.234 258.817 642.977 286.582C648.875 303.39 652.411 320.445 656.863 337.625L666.253 368.589C664.983 367.751 663.959 366.463 662.812 365.453L655.127 359.06C645.038 350.495 634.675 341.957 623.062 335.54L613.689 330.44C612.85 329.994 610.966 329.162 610.388 328.459C609.989 327.972 609.956 326.721 609.867 326.081L608.72 318.196C607.597 312.067 605.719 305.907 603.628 300.044C597.225 282.096 585.925 265.257 573.675 250.803C573.07 261.186 570.646 270.453 566.688 280.028C564.185 286.083 561.348 292.165 559.685 298.523C557.783 305.792 556.466 313.036 556.468 320.566C556.469 323.742 557.063 327.071 556.803 330.188L556.312 330.027L554.059 319.348C552.405 312.444 550.559 305.695 550.887 298.532C551.334 288.768 557.16 280.879 560.359 272.006C565.362 258.127 566.852 242.487 566.651 227.796C566.576 222.33 566.028 216.295 564.735 210.977C564.29 209.149 563.861 207.397 562.398 206.092C558.873 202.948 552.099 201.461 547.594 200.249C531.521 195.926 516.14 198.593 503.098 208.997C498.241 212.872 492.475 219.787 485.864 220.185C479.426 220.571 472.998 218.352 466.875 216.661C447.392 211.277 426.625 203.106 410.01 191.45C401.827 185.709 394.463 177.914 387.004 171.223L382.65 166.566C376.145 173.117 369.506 180.09 362.47 186.057C348.603 197.816 331.934 205.901 315.074 212.376C305.553 216.033 294.735 220.459 284.444 220.542C282.753 220.556 280.866 220.656 279.311 219.902L278.812 219.639C275.597 218.004 272.803 215.355 270.077 213.011C263.765 207.585 257.564 202.892 249.573 200.241C236.655 195.956 220.347 198.416 208.302 204.567C207.636 204.907 206.638 205.42 206.14 205.994C204.467 207.921 204.338 212.527 204.059 214.937C202.735 226.359 202.822 236.99 203.584 248.438C203.971 254.258 204.373 260.048 205.877 265.717C208.631 276.097 216.331 285.937 217.352 296.618C218.056 303.973 215.878 311.668 214.106 318.756C213.251 322.175 212.606 325.563 211.474 328.908C211.598 324.058 211.874 319.081 211.467 314.241C210.977 308.429 209.675 302.452 207.986 296.874C206.378 291.564 203.962 286.615 201.805 281.522C198.982 274.854 196.709 268.201 195.643 261.019C195.125 257.534 195.057 253.883 194.847 250.363C192.533 252.372 190.595 255.409 188.623 257.804C176.347 272.719 166.137 290.41 160.761 309.015C159.364 313.849 157.982 318.835 157.577 323.871L157.408 325.769C157.34 326.324 157.262 328.317 157.016 328.711C156.633 329.321 146.721 334.032 145.214 334.944C132.798 342.451 122.209 351.6 111.265 361.032C107.902 363.931 104.722 367.076 101.227 369.808C102.425 363.286 104.715 356.89 106.695 350.567L113.812 327.184L125.444 286.874C136.581 253.609 154.525 221.735 178.421 195.932C210.532 161.258 252.056 134.794 297.375 121.162C323.25 113.378 350.419 109.576 377.381 108.535ZM379.507 121.336C344.493 121.934 307.55 128.306 275.189 141.938C251.416 151.951 229.485 165.661 209.765 182.231C203.462 187.528 196.993 192.988 191.292 198.938C186.71 203.719 181.808 208.402 177.592 213.507C171.775 220.55 166.662 228.207 161.855 235.964C152.402 251.219 144.339 267.575 138.15 284.427C133.604 296.806 130.123 309.428 126.909 322.205C125.676 327.107 123.772 331.913 122.731 336.819C126.085 334.797 129.037 332.181 132.176 329.848C135.799 327.156 140.438 324.77 143.062 321.027C145.068 318.167 145.936 314.634 147.046 311.364L152.424 295.743C155.026 288.76 158.56 281.856 162.349 275.438C167.984 265.89 174.848 257.07 182.291 248.869L191.477 239.377C192.537 238.198 193.871 236.957 194.619 235.569C194.182 229.925 193.867 224.49 194.198 218.829C194.534 213.058 195.395 207.329 195.275 201.535C210.31 190.66 229.22 188.411 247.24 189.306C253.042 189.594 258.784 190.489 264.609 190.41C271.04 190.323 277.082 188.912 283.157 186.883C293.551 183.411 302.848 177.565 312.139 171.899C334.458 158.29 356.023 141.925 380.735 132.848L377.39 136.847C367.333 149.631 352.628 159.547 339.375 168.741C328.441 176.326 317.278 184.037 305.189 189.692C297.058 193.495 288.21 196.621 279.247 197.646C273.039 198.356 266.814 198.205 260.718 196.708L270.061 204.315C273.395 207.115 276.383 209.861 280.748 210.879C282.861 211.371 285.334 211.039 287.47 210.765C293.528 209.986 299.299 207.87 305.045 205.882C324.843 199.031 345.257 190.054 361.267 176.272C366.727 171.572 372.019 166.292 377.05 161.132C379.097 159.033 380.833 156.538 383.126 154.706L385.843 157.762C393.831 166 401.252 174.403 410.73 181.043C428.359 193.394 448.046 201.245 468.603 207.243C473.984 208.813 480.495 211.215 486.176 210.257C494.471 208.858 500.942 200.846 508.147 196.966C500.905 197.865 492.995 198.427 485.77 197.252C466.798 194.168 450.096 183.353 434.335 173.015C426.374 167.793 418.435 162.615 410.921 156.754C402.159 149.921 394.029 142.213 387.774 132.983C401.18 138.089 412.856 145.369 425.099 152.71L446.296 165.392C458.542 173.215 471.149 181.965 485.038 186.588C492.195 188.97 499.469 190.325 507.032 190.325C511.307 190.324 515.568 189.7 519.828 189.384C529.912 188.634 539.643 188.349 549.462 191.225C553.938 192.536 570.317 197.984 572.236 201.75C573.032 203.313 573.197 205.595 573.498 207.32C574.657 213.945 575.458 220.847 575.373 227.592L575.04 234.188C575.005 234.742 574.753 236.096 574.905 236.545C575.156 237.29 577.276 239.139 577.873 239.799L589.899 253.197C594.956 259.043 599.654 265.819 603.63 272.438C608.426 280.423 612.479 289.206 615.718 297.938L620.956 313.469C621.725 315.855 622.358 319.368 623.84 321.393C626.431 324.931 632.717 327.998 636.346 330.586C639.448 332.798 642.341 335.349 645.592 337.334C644.562 332.882 642.94 328.642 641.795 324.228C638.905 313.094 635.995 301.878 632.198 291.011C624.063 267.734 612.49 244.927 597.845 225.078C587.901 211.6 576.198 199.472 563.87 188.18C552.371 177.648 540.283 167.582 527.034 159.303C493.468 138.329 455.765 126.114 416.427 122.374C404.228 121.215 391.759 120.631 379.507 121.336Z"/>
</svg>
